<svg width="24" height="24" viewBox="0 0 24 24" fill="none" xmlns="http://www.w3.org/2000/svg">
<path fill-rule="evenodd" clip-rule="evenodd" d="M5 7C5 5.89543 5.89543 5 7 5H17C18.1046 5 19 5.89543 19 7V17C19 18.1046 18.1046 19 17 19C15.8954 19 15 18.1046 15 17V9H7C5.89543 9 5 8.10457 5 7Z" fill="black" stroke="white" stroke-linecap="round" stroke-linejoin="round"/>
<path fill-rule="evenodd" clip-rule="evenodd" d="M18.4142 5.58579C19.1953 6.36683 19.1953 7.63317 18.4142 8.41421L8.41421 18.4142C7.63317 19.1953 6.36683 19.1953 5.58579 18.4142C4.80474 17.6332 4.80474 16.3668 5.58579 15.5858L15.5858 5.58579C16.3668 4.80474 17.6332 4.80474 18.4142 5.58579Z" fill="black" stroke="white" stroke-linecap="round" stroke-linejoin="round"/>
</svg>
